<?xml version="1.0" encoding="UTF-8" standalone="no"?>
<!-- Created with Inkscape (http://www.inkscape.org/) -->

<svg
   version="1.1"
   id="svg2"
   xml:space="preserve"
   width="2666.6667"
   height="2666.6667"
   viewBox="0 0 2666.6667 2666.6667"
   sodipodi:docname="shutterstock_2046220997.eps"
   xmlns:inkscape="http://www.inkscape.org/namespaces/inkscape"
   xmlns:sodipodi="http://sodipodi.sourceforge.net/DTD/sodipodi-0.dtd"
   xmlns="http://www.w3.org/2000/svg"
   xmlns:svg="http://www.w3.org/2000/svg"><defs
     id="defs6" /><sodipodi:namedview
     id="namedview4"
     pagecolor="#ffffff"
     bordercolor="#666666"
     borderopacity="1.0"
     inkscape:pageshadow="2"
     inkscape:pageopacity="0.0"
     inkscape:pagecheckerboard="0" /><g
     id="g8"
     inkscape:groupmode="layer"
     inkscape:label="ink_ext_XXXXXX"
     transform="matrix(1.3333333,0,0,-1.3333333,0,2666.6667)"><g
       id="g10"
       transform="scale(0.1)"><path
         d="M 20000,0 H 0 V 20000 H 20000 V 0"
         style="fill:#ffffff;fill-opacity:1;fill-rule:nonzero;stroke:none"
         id="path12" /><path
         d="M 17843.9,5541.3 H 2156.09 c -386.03,0 -698.97,312.9 -698.97,699 v 7519.4 c 0,386.1 312.94,699 698.97,699 H 17843.9 c 386,0 699,-312.9 699,-699 V 6240.3 c 0,-386.1 -313,-699 -699,-699 z"
         style="fill:none;stroke:#222526;stroke-width:150;stroke-linecap:butt;stroke-linejoin:miter;stroke-miterlimit:10;stroke-dasharray:none;stroke-opacity:1"
         id="path14" /><path
         d="m 10064.1,8386.4 c -10.1,-20.8 -25.9,-37.2 -47.3,-49.2 -21.64,-12 -49.65,-18 -84.14,-18 h -134.4 v 274.7 h 132.99 c 35.31,0 63.71,-5.8 85.35,-17.5 21.6,-11.7 37.4,-27.8 47.5,-48.4 10,-20.5 15.1,-44.1 15.1,-70.6 0,-26.5 -5.1,-50.2 -15.1,-71 z m 95,187.1 c -17.8,34.4 -44.7,61.6 -80.6,81.5 -35.9,19.8 -81.24,29.8 -135.84,29.8 h -250.4 v -702.4 h 106 v 246.9 h 144 c 54.4,0 99.74,10 135.74,30 36,20 63,47.2 80.9,81.7 18,34.4 26.9,73.2 26.9,116.4 0,43 -8.9,81.7 -26.7,116.1"
         style="fill:#222526;fill-opacity:1;fill-rule:nonzero;stroke:none"
         id="path16" /><path
         d="m 10674.5,8266.3 c -30.5,-11.5 -66.5,-17.5 -108,-18 l 142.7,-265.9 h 120.8 l -155.5,283.9"
         style="fill:#222526;fill-opacity:1;fill-rule:nonzero;stroke:none"
         id="path18" /><path
         d="m 10681.4,8397 c -10,-18.7 -25.9,-33 -47.5,-42.8 -21.6,-9.9 -49.5,-14.8 -83.8,-14.8 h -134.5 v 254.5 h 133.1 c 35,0 63.3,-5.2 84.9,-15.6 21.6,-10.4 37.5,-25.3 47.7,-44.8 10.1,-19.4 15.2,-42.4 15.2,-68.9 0,-26.3 -5,-48.8 -15.1,-67.6 z m 95.1,182 c -17.9,33 -44.8,58.9 -80.8,77.7 -36,18.7 -81.3,28.1 -135.7,28.1 h -250.4 v -702.4 h 106 v 265.8 h 144.1 c 2.3,0 4.6,0 6.8,0.1 41.5,0.5 77.5,6.5 108,18 7.2,2.6 14.2,5.6 20.8,9 36,18 63,43.4 81,75.9 17.9,32.6 26.9,70.4 26.9,113.4 0,43.2 -8.9,81.3 -26.7,114.4"
         style="fill:#222526;fill-opacity:1;fill-rule:nonzero;stroke:none"
         id="path20" /><path
         d="m 11437.7,8333.6 c 0,57.2 -9.2,105.4 -27.6,144.6 -18.4,39.2 -43.6,68.9 -75.5,89.1 -31.9,20.3 -67.9,30.4 -108.2,30.4 -40.5,0 -76.6,-10.1 -108.4,-30.4 -31.8,-20.2 -56.9,-49.9 -75.3,-89.1 -18.4,-39.2 -27.6,-87.4 -27.6,-144.6 0,-57.2 9.2,-105.4 27.6,-144.6 18.4,-39.2 43.5,-68.9 75.3,-89.1 31.8,-20.3 67.9,-30.4 108.4,-30.4 40.3,0 76.3,10.1 108.2,30.4 31.9,20.2 57.1,49.9 75.5,89.1 18.4,39.2 27.6,87.4 27.6,144.6 z m 104.9,0 c 0,-75 -13.7,-139.4 -41.1,-193.3 -27.5,-53.8 -65,-95.2 -112.7,-124.1 -47.7,-29 -101.8,-43.4 -162.4,-43.4 -60.8,0 -115.1,14.4 -162.7,43.4 -47.7,28.9 -85.3,70.3 -112.7,124.3 -27.5,54 -41.2,118.3 -41.2,193.1 0,75 13.7,139.4 41.2,193.3 27.4,53.8 65,95.2 112.7,124.1 47.6,29 101.9,43.4 162.7,43.4 60.6,0 114.7,-14.4 162.4,-43.4 47.7,-28.9 85.2,-70.3 112.7,-124.1 27.4,-53.9 41.1,-118.3 41.1,-193.3"
         style="fill:#222526;fill-opacity:1;fill-rule:nonzero;stroke:none"
         id="path22" /><path
         d="m 11610.2,8593.6 v 91.2 h 543.6 v -91.2 h -219.1 V 7982.4 H 11829 v 611.2 h -218.8"
         style="fill:#222526;fill-opacity:1;fill-rule:nonzero;stroke:none"
         id="path24" /><path
         d="m 12273.5,7982.4 v 702.4 h 440.4 v -91.2 h -334.4 v -214 h 311.4 v -90.9 h -311.4 v -215.1 h 338.5 v -91.2 h -444.5"
         style="fill:#222526;fill-opacity:1;fill-rule:nonzero;stroke:none"
         id="path26" /><path
         d="m 13439.3,8456.4 h -107 c -4.1,22.9 -11.7,43 -22.9,60.4 -11.3,17.3 -25,32.1 -41.2,44.2 -16.2,12.1 -34.4,21.3 -54.4,27.4 -20,6.2 -41.2,9.3 -63.6,9.3 -40.5,0 -76.7,-10.2 -108.5,-30.5 -31.9,-20.4 -57.1,-50.2 -75.5,-89.5 -18.4,-39.4 -27.6,-87.4 -27.6,-144.1 0,-57.2 9.2,-105.4 27.6,-144.7 18.4,-39.4 43.6,-69.1 75.6,-89.2 32,-20.1 68,-30.2 108.1,-30.2 22.1,0 43.2,3 63.2,9.1 20.1,6 38.2,15 54.4,26.9 16.2,11.9 30,26.5 41.3,43.7 11.4,17.3 19.2,37.1 23.5,59.5 l 107,-0.3 c -5.7,-34.5 -16.7,-66.2 -33,-95.2 -16.4,-28.9 -37.3,-53.8 -62.8,-74.7 -25.5,-21 -54.6,-37.1 -87.3,-48.6 -32.7,-11.4 -68.4,-17.1 -107,-17.1 -60.9,0 -115,14.4 -162.6,43.4 -47.6,28.9 -85,70.3 -112.3,124.3 -27.4,54 -41,118.3 -41,193.1 0,75 13.7,139.4 41.1,193.3 27.5,53.8 65,95.2 112.5,124.1 47.6,29 101.7,43.4 162.3,43.4 37.2,0 72.1,-5.3 104.4,-15.9 32.4,-10.7 61.5,-26.2 87.3,-46.7 25.8,-20.4 47.2,-45.4 64.1,-74.7 17,-29.4 28.4,-63 34.3,-100.7"
         style="fill:#222526;fill-opacity:1;fill-rule:nonzero;stroke:none"
         id="path28" /><path
         d="m 13531.6,8593.6 v 91.2 h 543.6 v -91.2 h -219.1 v -611.2 h -105.7 v 611.2 h -218.8"
         style="fill:#222526;fill-opacity:1;fill-rule:nonzero;stroke:none"
         id="path30" /><path
         d="m 14194.9,7982.4 v 702.4 h 440.4 v -91.2 h -334.4 v -214 h 311.4 v -90.9 h -311.4 v -215.1 h 338.5 v -91.2 h -444.5"
         style="fill:#222526;fill-opacity:1;fill-rule:nonzero;stroke:none"
         id="path32" /><path
         d="m 14883.3,8075 h 115.6 c 53.5,0 98,10.1 133.4,30.3 35.4,20.3 62,49.7 79.6,88.2 17.6,38.5 26.4,85.6 26.4,141.1 0,55.1 -8.8,101.9 -26.3,140.3 -17.4,38.4 -43.5,67.6 -78,87.5 -34.5,19.9 -77.4,29.8 -128.6,29.8 h -122.1 z m 121.4,-92.6 h -227.4 v 702.4 h 234.6 c 68.8,0 127.9,-14 177.3,-42 49.4,-28 87.3,-68.1 113.7,-120.4 26.4,-52.2 39.6,-114.8 39.6,-187.8 0,-73.1 -13.3,-136 -39.9,-188.6 -26.6,-52.6 -65.1,-93 -115.4,-121.3 -50.3,-28.2 -111.1,-42.3 -182.5,-42.3"
         style="fill:#222526;fill-opacity:1;fill-rule:nonzero;stroke:none"
         id="path34" /><path
         d="m 13628.2,11877.2 c -659.1,0 -1195.3,-536.2 -1195.3,-1195.3 0,-659.1 536.2,-1195.3 1195.3,-1195.3 659.1,0 1195.3,536.2 1195.3,1195.3 0,659.1 -536.2,1195.3 -1195.3,1195.3 z m 0,-2540.6 c -741.8,0 -1345.3,603.5 -1345.3,1345.3 0,741.8 603.5,1345.3 1345.3,1345.3 741.8,0 1345.3,-603.5 1345.3,-1345.3 0,-741.8 -603.5,-1345.3 -1345.3,-1345.3"
         style="fill:#222526;fill-opacity:1;fill-rule:nonzero;stroke:none"
         id="path36" /><path
         d="m 8624.27,10106.3 h 242.43 c 112.84,0 207.9,20.1 285.19,60.3 77.28,40.3 135.46,102.9 174.56,187.8 39.07,85 58.62,194.7 58.62,329.3 0,133.4 -19.55,242.4 -58.62,327.1 -39.1,84.6 -97.13,146.9 -174.12,186.9 -77,39.9 -171.9,59.9 -284.74,59.9 h -243.32 z m 258.3,-327.1 h -640.02 v 1805.5 h 645.31 c 181.6,0 337.93,-36.1 469,-108 131.05,-72 231.99,-175.3 302.82,-309.9 70.81,-134.6 106.23,-295.6 106.23,-483.1 0,-188.1 -35.42,-349.7 -106.23,-484.9 -70.83,-135.2 -172.21,-238.9 -304.14,-311.2 -131.96,-72.3 -289.6,-108.4 -472.97,-108.4"
         style="fill:#222526;fill-opacity:1;fill-rule:nonzero;stroke:none"
         id="path38" /><path
         d="m 10048,11584.7 h 470.8 l 497.1,-1213.1 h 21.2 l 497.2,1213.1 h 470.8 V 9779.2 h -370.3 v 1175.1 h -15 L 11152.6,9788 h -252.1 l -467.3,1170.7 h -15 V 9779.2 H 10048 v 1805.5"
         style="fill:#222526;fill-opacity:1;fill-rule:nonzero;stroke:none"
         id="path40" /><path
         d="m 14411.9,10952.6 h -386.1 c -7.1,49.9 -21.5,94.4 -43.2,133.5 -21.8,39.1 -49.7,72.5 -83.8,100.1 -34.1,27.6 -73.3,48.8 -117.7,63.5 -44.4,14.6 -92.4,22 -144.1,22 -93.5,0 -174.9,-23.1 -244.2,-69.2 -69.4,-46.1 -123.1,-113.1 -161.3,-201 -38.2,-87.9 -57.3,-194.4 -57.3,-319.6 0,-128.7 19.2,-236.8 57.7,-324.4 38.5,-87.6 92.4,-153.7 161.8,-198.4 69.3,-44.6 149.6,-66.9 240.6,-66.9 51.2,0 98.6,6.7 142.4,20.2 43.8,13.5 82.7,33.4 116.8,59.5 34.1,26.2 62.5,58.1 85.1,95.7 22.6,37.6 38.3,80.5 47.2,128.7 l 386.1,-1.8 c -10,-82.8 -34.8,-162.6 -74.5,-239.3 -39.7,-76.7 -92.9,-145.2 -159.6,-205.4 -66.7,-60.3 -146,-107.9 -238,-142.8 -92,-35 -195.8,-52.5 -311.6,-52.5 -161.1,0 -304.9,36.4 -431.5,109.3 -126.7,72.9 -226.6,178.4 -299.8,316.5 -73.2,138.1 -109.7,305.3 -109.7,501.6 0,196.9 37,364.4 111,502.5 74.1,138.1 174.6,243.5 301.5,316.1 127,72.5 269.8,108.8 428.5,108.8 104.6,0 201.7,-14.7 291.3,-44 89.7,-29.4 169.1,-72.2 238.5,-128.3 69.4,-56.1 125.9,-124.7 169.7,-205.9 43.8,-81.1 71.9,-173.9 84.2,-278.5"
         style="fill:#28de22;fill-opacity:1;fill-rule:nonzero;stroke:none"
         id="path42" /><path
         d="m 15694.5,10488.8 222.3,683.3 h 14.1 l 221.9,-683.3 z m 475.3,1095.8 h -491.9 l -623.2,-1805.4 h 409 l 133.9,411.7 h 651.9 l 133.7,-411.7 h 409 l -622.4,1805.4"
         style="fill:#222526;fill-opacity:1;fill-rule:nonzero;stroke:none"
         id="path44" /><path
         d="m 5318.22,8833.7 169.87,-351.3 c 10.89,-22.4 -5.77,-48.4 -30.45,-48.4 h -505.1 c -25,0 -41.34,26 -30.45,48.4 l 169.55,351.3 c 8.34,17 0.64,37.2 -16.66,45.2 -103.85,49 -176.28,154.8 -176.28,277.2 0,103.5 51.59,195.2 130.76,250.7 58.34,41.3 132.04,62.5 210.56,53.5 51.61,-5.8 100,-25 140.7,-53.5 68.27,-48.1 116.35,-123.4 127.88,-209 18.59,-139.7 -57.69,-264.1 -173.39,-318.9 -17.3,-8 -24.99,-28.2 -16.99,-45.2 z m -964.68,3180 c 0,123.4 100.63,224 224.02,224 h 1254.75 c 123.72,0 224.35,-100.6 224.35,-224 V 10604.1 H 4353.54 Z m 2788.95,-1491.6 -31.07,9.1 c -166.04,48.4 -338.1,72.9 -511.05,72.9 h -73.87 v 1409.6 c 0,383.4 -310.8,694.2 -694.19,694.2 H 4577.56 c -383.39,0 -694.19,-310.8 -694.19,-694.2 v -1409.6 h -73.83 c -172.76,0 -344.65,-24.5 -510.52,-72.8 l -31.66,-9.2 c -35.32,-10.3 -59.61,-42.7 -59.61,-79.5 V 7453.7 c 0,-36.6 24.36,-69 59.61,-79.5 l 0.61,-0.2 c 186.46,-54.3 379.69,-81.9 573.91,-81.9 h 2726.11 c 194.42,0 387.85,27.6 574.51,82.1 v 0 c 35.25,10.5 59.6,42.9 59.6,79.5 v 2988.9 c 0,36.8 -24.28,69.2 -59.61,79.5"
         style="fill:#28de22;fill-opacity:1;fill-rule:nonzero;stroke:none"
         id="path46" /><path
         d="m 4403.54,10654.1 h 1603.12 v 1359.6 c 0,95.9 -78.22,174 -174.35,174 H 4577.56 c -95.96,0 -174.02,-78.1 -174.02,-174 z m 1703.12,-100 H 4303.54 v 1459.6 c 0,151.1 122.92,274 274.02,274 h 1254.75 c 151.27,0 274.35,-122.9 274.35,-274 z M 5046.61,8855.4 c -0.03,0 -0.06,-0.1 -0.09,-0.1 z m 310.21,-21.6 c -0.07,0 -0.13,-0.1 -0.2,-0.1 0.06,0 0.13,0.1 0.2,0.1 z m -303.05,-0.2 c 0.07,0 0.14,0 0.21,-0.1 -0.07,0.1 -0.14,0.1 -0.21,0.1 z M 4978.39,8484 h 453.39 l -158.79,328.4 c -9.52,20.2 -10.55,42.9 -2.9,64 7.75,21.3 23.42,38.3 44.13,47.9 101.3,48 159.67,155.3 144.82,266.9 -9.39,69.7 -48.43,133.4 -107.11,174.7 -35.04,24.5 -75.69,40 -117.46,44.7 -62.83,7.2 -125.36,-8.7 -176.09,-44.6 -68.77,-48.2 -109.68,-126.6 -109.68,-209.9 0,-98.6 57.95,-189.6 147.63,-232 20.25,-9.4 36.38,-27 43.9,-48.2 7.52,-21.2 6.2,-44 -3.71,-64.2 z m -11.24,-23.2 -0.03,-0.1 c 0.01,0 0.02,0 0.03,0.1 z m 490.49,-76.8 h -505.1 c -29.11,0 -55.68,14.7 -71.1,39.4 -15.38,24.5 -17,54.8 -4.33,80.9 l 162.41,336.5 c -116.56,61.6 -190.82,183.6 -190.82,315.3 0,115.9 56.85,224.9 152.08,291.6 70.62,50.1 157.68,72.2 244.92,62.3 58.25,-6.6 114.91,-28.1 163.72,-62.3 81.44,-57.3 135.62,-146 148.73,-243.2 19.94,-149.8 -55.14,-294.1 -187.73,-363.9 l 162.69,-336.4 c 12.6,-26 10.96,-56.2 -4.43,-80.8 -15.45,-24.6 -42.01,-39.4 -71.04,-39.4 z m -1648.1,2170.1 c -168.09,0 -335.15,-23.8 -496.54,-70.8 l -31.66,-9.2 c -13.88,-4.1 -23.59,-17 -23.59,-31.5 V 7453.7 c 0,-14.4 9.86,-27.4 23.98,-31.6 182.23,-53.1 370.61,-80 560.15,-80 h 2726.11 c 189.74,0 378.32,27 560.51,80.1 13.75,4.1 23.6,17.1 23.6,31.5 v 2988.9 c 0,14.5 -9.71,27.4 -23.61,31.5 v 0 l -31.06,9.1 c -161.57,47.1 -328.8,70.9 -497.06,70.9 H 6476.5 v 1459.6 c 0,355.2 -288.98,644.2 -644.19,644.2 H 4577.56 c -355.21,0 -644.19,-289 -644.19,-644.2 v -1459.6 z m 2758.45,-3312 H 3841.88 c -199,0 -396.8,28.2 -587.89,83.9 l -1,0.3 c -56.07,16.8 -95.24,69.2 -95.24,127.4 v 2988.9 c 0,58.7 39.33,111.1 95.62,127.5 l 31.67,9.2 c 170.48,49.7 346.95,74.8 524.5,74.8 h 23.83 v 1359.6 c 0,410.3 333.84,744.2 744.19,744.2 h 1254.75 c 410.35,0 744.19,-333.9 744.19,-744.2 v -1359.6 h 23.87 c 177.74,0 354.39,-25.2 525.05,-74.9 l 31.06,-9.1 c 56.3,-16.4 95.62,-68.8 95.62,-127.5 V 7453.7 c 0,-58.2 -39.16,-110.6 -95.24,-127.4 -191.65,-55.9 -389.65,-84.2 -588.87,-84.2"
         style="fill:#222526;fill-opacity:1;fill-rule:nonzero;stroke:none"
         id="path48" /></g></g></svg>
